<svg xmlns="http://www.w3.org/2000/svg" width="512" height="512" viewBox="0 0 512 512" version="1.1"><path d="" stroke="none" fill="#045c94" fill-rule="evenodd"/><path d="M 242 13.082 C 228.805 13.834, 222.975 14.463, 214 16.105 C 165.441 24.987, 126.402 47.322, 106.433 77.646 C 100.288 86.976, 97.872 92.126, 94.792 102.461 C 92.949 108.647, 92.642 112.774, 92.266 136.500 C 91.874 161.197, 92.021 164.393, 93.983 173.973 C 102.441 215.259, 142.091 248.202, 200.500 262.469 C 270.042 279.456, 349.328 262.543, 390.057 222.032 C 401.600 210.551, 405.286 205.895, 410.034 196.795 C 418.744 180.102, 420.349 169.953, 419.757 135.280 C 419.393 113.969, 419.037 109.415, 417.208 102.751 C 405.615 60.493, 358.811 26.709, 297.109 16.059 C 286.283 14.191, 280.053 13.612, 260.500 12.661 C 257.200 12.501, 248.875 12.690, 242 13.082 M 92 228.428 C 92 246.517, 94.044 256.832, 100.216 269.891 C 108.228 286.842, 123.942 303.616, 143.609 316.211 C 161.845 327.889, 188.683 337.683, 215.500 342.446 C 251.781 348.890, 294.664 345.891, 328.598 334.536 C 379.709 317.433, 412.923 285.257, 418.959 247 C 420.277 238.648, 420.324 218, 419.026 218 C 418.490 218, 417.297 219.459, 416.374 221.243 C 412.241 229.235, 398.079 244.825, 386.967 253.615 C 361.940 273.412, 332.360 285.338, 291.500 292.105 C 276.036 294.666, 241.429 295.201, 226.500 293.109 C 183.709 287.115, 147.475 272.679, 122.500 251.675 C 112.526 243.287, 102.254 231.860, 96.496 222.745 C 94.848 220.137, 93.162 218.003, 92.750 218.002 C 92.338 218.001, 92 222.692, 92 228.428 M 92.273 309.750 C 92.679 321.654, 93.337 327.331, 94.967 333 C 103.300 361.969, 126.127 385.864, 161.373 402.512 C 210.756 425.838, 274.788 429.224, 328.825 411.367 C 367.862 398.467, 400.464 372.812, 412.551 345.482 C 417.561 334.153, 419.118 326.389, 419.717 309.750 C 420.029 301.087, 420.009 294, 419.672 294 C 419.336 294, 416.720 297.488, 413.858 301.750 C 406.764 312.315, 390.514 328.413, 379 336.278 C 353.498 353.700, 320.503 365.503, 286.019 369.537 C 271.202 371.271, 243.351 371.517, 230 370.032 C 190.631 365.653, 156.104 353.213, 129 333.645 C 120.617 327.592, 102.931 309.380, 97.541 301.250 C 94.897 297.262, 92.509 294, 92.235 294 C 91.961 294, 91.978 301.087, 92.273 309.750 M 92.261 386.250 C 92.990 408.284, 96.169 418.883, 106.870 434.956 C 123.601 460.085, 153.799 479.799, 192.500 490.858 C 202.843 493.813, 217.548 496.774, 225.500 497.502 C 229.350 497.855, 233.304 498.372, 234.287 498.651 C 236.980 499.415, 271.763 499.348, 278.028 498.566 C 281.038 498.190, 285.300 497.663, 287.500 497.394 C 349.739 489.786, 401.453 456.250, 415.508 414.382 C 418.964 404.086, 420.119 395.345, 419.787 382.007 L 419.500 370.514 413.577 379.007 C 393.730 407.466, 361.706 428.294, 320 439.869 C 265.157 455.091, 198.783 448.798, 150.500 423.798 C 130.481 413.432, 107.659 393.644, 98 378.277 C 95.525 374.339, 93.108 371.091, 92.628 371.059 C 92.148 371.026, 91.983 377.844, 92.261 386.250" stroke="none" fill="#045494" fill-rule="evenodd"/></svg>